PathFileType	4	(X/Y/Z)	D:\Long Term Storage\D'Arcy Smith\Coord18.trc
DataRate	CameraRate	NumFrames	NumMarkers	Units	OrigDataRate	OrigDataStartFrame	OrigNumFrames
120.00	120.00	      50	4	mm	120.00	4189	      4787
Frame#	Time	M1			M2			M3			M4			
		X1	Y1	Z1	X2	Y2	Z2	X3	Y3	Z3	X4	Y4	Z4	

4189	34.900	558.16772	469.32687	-61.86713	943.92700	375.40942	530.22491							
4190	34.908	563.14337	460.03455	-54.97633	943.62469	390.79745	546.54767							
4191	34.917	568.17792	449.80505	-47.18988	943.56342	406.60989	560.78522							
4192	34.925	572.99847	438.75552	-38.12455	943.41779	422.22357	573.70673							
4193	34.933	577.96722	427.18982	-28.55523	942.90979	438.39243	585.89410							
4194	34.942	583.04120	414.73563	-17.22154	942.12848	454.30276	596.26306							
4195	34.950	588.20490	402.01819	-4.90436	942.05530	470.82541	606.21515							
4196	34.958	593.34015	389.12491	8.44681	941.75537	486.82703	614.22620							
4197	34.967	598.92621	376.75720	22.57805	941.03479	502.27353	620.89990							
4198	34.975	604.27771	364.06317	38.04982	940.36047	517.63831	627.61572							
4199	34.983	609.43378	351.96503	54.63199	939.62000	532.11102	632.53076							
4200	34.992	614.24274	340.30136	72.21658	938.86475	545.46045	636.65039							
4201	35.000	619.08881	329.74994	90.74077	937.78326	557.93768	640.07098							
4202	35.008	623.18909	319.53104	110.76140	936.47369	569.61395	642.67761							
4203	35.017	627.35840	310.73309	131.55869	934.96478	580.31012	644.96832							
4204	35.025	630.65973	303.18344	152.99661	933.48401	589.86401	646.60089							
4205	35.033	633.99927	296.55682	175.48129	931.45654	598.19751	647.09729							
4206	35.042	637.07697	291.40845	198.44183	929.45032	605.37695	647.85077							
4207	35.050	639.75122	287.45755	221.57773	927.27881	611.68372	648.26917							
4208	35.058	642.23810	284.73697	245.21239	924.69763	616.84290	648.76251							
4209	35.067	644.38794	283.29898	268.64584	922.04443	620.71436	648.32269							
4210	35.075	646.35602	283.51807	291.32120	919.32056	623.33093	648.06329							
4211	35.083	647.45917	283.73431	316.11151	916.30475	624.94385	647.84607							
4212	35.092	648.62982	286.72720	337.97351	913.39203	625.37891	646.85962							
4213	35.100	649.18494	290.73035	358.95810	910.36664	624.72150	646.01709							
4214	35.108	649.37976	295.07327	380.50259	907.09650	622.83270	644.89215							
4215	35.117	649.26556	300.01642	401.34824	904.16260	619.80511	643.57825							
4216	35.125	648.93451	305.80411	421.59467	901.08978	615.78290	641.84320							
4217	35.133	648.43518	312.50027	440.23212	898.04108	610.71460	640.21204							
4218	35.142	647.48865	319.70432	458.34445	895.23846	604.85571	637.88824							
4219	35.150	645.52203	327.44513	477.67819	891.98956	597.96539	636.41724							
4220	35.158	643.77216	335.89545	494.16711	889.22345	590.28827	634.01495							
4221	35.167	641.27563	345.10413	510.02127	886.85291	581.37866	630.66699							
4222	35.175	638.53998	354.98611	524.69861	884.08063	571.72974	627.10358							
4223	35.183	635.10474	365.45914	539.18640	881.92517	561.48590	623.32513							
4224	35.192	631.64777	376.47400	551.82532	879.50214	550.79749	618.84259							
4225	35.200	627.63098	386.90756	565.22101	877.66309	539.18921	613.63129							
4226	35.208	624.17236	398.11755	575.53888	876.22827	526.27783	606.25824							
4227	35.217	620.80853	408.96774	585.57635	874.54022	513.83453	600.11188							
4228	35.225	617.86664	419.77667	593.27740	873.43890	500.97354	592.90649							
4229	35.233	613.13080	429.86688	600.96820	872.71527	487.74350	584.93445							
4230	35.242	608.98743	439.46228	607.10406	871.71619	473.89120	576.47681							
4231	35.250	605.37274	448.07492	611.99701	871.34271	459.99350	566.93756							
4232	35.258	602.15369	455.19107	615.82135	871.26178	446.00336	556.34857							
4233	35.267	599.37140	461.16928	618.89368	871.61163	432.44308	545.96539							
4234	35.275	597.01086	465.49231	621.01697	872.34247	418.55600	533.10773							
4235	35.283	595.29510	468.22379	621.57324	873.43579	405.07004	519.39819							
4236	35.292	593.91779	469.46063	621.73230	874.84888	391.90527	504.39948							
4237	35.300	593.00818	469.06290	620.67548	876.73682	379.13058	488.48276							
4238	35.308	592.73566	467.44846	618.86725	878.96808	367.15591	471.52783							
